<?xml version="1.0" encoding="utf-8"?>
<!-- Generator: Adobe Illustrator 26.4.1, SVG Export Plug-In . SVG Version: 6.00 Build 0)  -->
<svg version="1.1" xmlns="http://www.w3.org/2000/svg" xmlns:xlink="http://www.w3.org/1999/xlink" x="0px" y="0px"
	 viewBox="0 0 60 60" style="enable-background:new 0 0 60 60;" xml:space="preserve">
<style type="text/css">
	.st0{display:none;}
	.st1{display:inline;fill:#808184;}
	.st2{display:inline;}
	.st3{fill:#808184;}
	.st4{display:inline;fill-rule:evenodd;clip-rule:evenodd;fill:#808184;}
</style>
<g id="Details" class="st0">
	<path class="st1" d="M38.1,6.1c-4.2,0-8.1,1.6-11.1,4.6c-3,3-4.6,6.9-4.6,11.1c0,3,0.8,5.7,2.3,8.1c-0.3,0.6-0.5,1.2-0.5,1.9v0
		c0,0.4,0.1,0.8,0.2,1.2l-1.8,1.9c-0.8-0.1-1.6,0.1-2.2,0.5L20,35.7l-1.3-0.2l0,0l0,0L7.5,46.7l0,0L7,47.2l0,1.4l-0.2,0.2
		c-0.4,0.5-0.6,1.2-0.6,1.9c0,0.8,0.3,1.6,0.9,2.2c1.1,1.1,2.8,1.2,4,0.3l0.2-0.2l1.6,0.2l0.5-0.5l0,0l11.1-11.2l0,0l-0.3-1.4
		l0.2-0.3c0.5-0.7,0.7-1.5,0.5-2.3l1.8-1.8c1,0.3,2.1,0.2,3-0.3c2.4,1.4,5.1,2.3,8.1,2.3c8.7,0,15.7-7,15.7-15.7
		C53.8,13.2,46.7,6.1,38.1,6.1z M38.1,33.9c-6.7,0-12.1-5.4-12.1-12.1c0-3.2,1.3-6.3,3.5-8.5c2.3-2.3,5.3-3.5,8.5-3.5
		c6.7,0,12.1,5.4,12.1,12.1C50.1,28.5,44.7,33.9,38.1,33.9z"/>
</g>
<g id="Lightweight" class="st0">
	<g class="st2">
		<path class="st3" d="M49.1,9.5C49.1,9.5,49,9.4,49.1,9.5c-2.5-2.4-5.6-3.7-8.9-3.7c-3.4,0-6.5,1.3-8.9,3.7c0,0-0.1,0.1-0.8,0.9
			l0,0l-4.5,4.9l-2.4,2.6c-0.9,0.9-1.7,1.9-2.6,2.8l0,0l-4.5,4.9l-0.8,0.9c-1.7,1.8-2.9,3.2-3.3,3.6l-1.1,1.2l0.3,1.6l1.4,7.2
			l-4.5,4.5c-0.7,0.7-1.2,1.7-1.2,2.8c0,1.1,0.4,2.1,1.2,2.8c0.7,0.7,1.7,1.2,2.8,1.2c1.1,0,2-0.4,2.8-1.2l4.5-4.5l7.2,1.4l1.6,0.3
			l1.2-1.1c1-0.9,5.7-5.2,9.7-8.9l4.9-4.5h0c3-2.8,5.8-5.4,6-5.5C54,22.4,54,14.4,49.1,9.5z M38.2,32.9l-5.9,1.3l3.7,0.7
			c-4.4,4.1-8.8,8.1-9.7,8.9l-8.9-1.7l-5.8,5.8C11.5,48,11.3,48,11.2,48c-0.2,0-0.3-0.1-0.4-0.2c-0.2-0.2-0.2-0.6,0-0.9l5.8-5.8
			l-1.7-8.9c0.5-0.5,2.1-2.3,4.2-4.5l1.1,5.7l1.6-8.6c2.2-2.4,4.7-5.1,6.8-7.4l0.6,3l1.2-5c1.9-2.1,3.3-3.6,3.4-3.6
			c1.8-1.8,4.2-2.7,6.6-2.7c2.4,0,4.7,0.9,6.5,2.7c0,0,0,0,0,0c3.6,3.6,3.6,9.5,0,13.1C46.6,25.1,42.6,28.8,38.2,32.9z"/>
		<path class="st3" d="M42.2,15.8c-0.2,0-0.3,0.1-0.4,0.2L16.5,41.2l0.1,0.7l0,0.1l0.7,0.1l25.2-25.2c0.2-0.2,0.2-0.6,0-0.9
			C42.5,15.9,42.3,15.8,42.2,15.8z"/>
	</g>
</g>
<g id="ESC" class="st0">
	<g class="st2">
		<path class="st3" d="M30.7,11.1c-6.6,0-12,5.4-12,12c0,4,2,7.8,5.4,10l0.4,0.2l0.4-0.2c3.7-1.4,7.8-1.4,11.6,0.1l0.4,0.2l0.4-0.2
			c3.5-2.2,5.5-6,5.5-10.1C42.7,16.4,37.3,11.1,30.7,11.1z M36.6,31.5c-2-0.7-4-1.1-6.1-1.1c-2,0-4,0.3-5.8,1
			c-2.7-1.9-4.2-5-4.2-8.3c0-5.7,4.6-10.3,10.3-10.3c5.7,0,10.3,4.6,10.3,10.3C40.9,26.4,39.3,29.5,36.6,31.5z"/>
		<path class="st3" d="M33.6,18.8l-3.4,3.4c-0.4,0.4-0.4,0.9,0,1.3c0.4,0.4,0.9,0.4,1.3,0l3.4-3.4c0.4-0.4,0.4-0.9,0-1.3
			C34.5,18.5,34,18.5,33.6,18.8z"/>
		<path class="st3" d="M30.7,14.5c-4.7,0-8.5,3.8-8.5,8.5c0,2,0.7,3.9,1.9,5.4c0,0,0,0,0,0c0.2,0.3,0.5,0.5,0.9,0.5c0.6,0,1-0.5,1-1
			c0-0.6-0.5-1-1-1c-0.4,0-0.7,0.2-0.9,0.5l-0.1,0c-0.8-1.2-1.3-2.7-1.3-4.3c0-4.3,3.5-7.9,7.9-7.9c4.3,0,7.9,3.5,7.9,7.9
			c0,1.3-0.8,3.1-1.4,4.3c-0.2-0.3-0.5-0.5-0.9-0.5c-0.6,0-1,0.5-1,1.1c0,0.6,0.5,1,1,1c0.3,0,0.6-0.2,0.8-0.4c0,0,0,0,0,0
			c1.3-1.5,2-3.4,2-5.5C39.1,18.4,35.3,14.5,30.7,14.5z"/>
		<path class="st3" d="M41,35.5H20.3c-0.3,0-0.6,0.3-0.6,0.6v9.7c0,0.3,0.3,0.6,0.6,0.6H41c0.3,0,0.6-0.3,0.6-0.6V36
			C41.6,35.7,41.4,35.5,41,35.5z M26.6,44.1h-3.2c-0.3,0-0.5-0.2-0.5-0.5v-4.4c0-0.3,0.2-0.5,0.5-0.5h3.1c0.2,0,0.4,0.2,0.4,0.4
			c0,0.2-0.2,0.4-0.4,0.4h-2.7v1.4h2.3c0.2,0,0.4,0.2,0.4,0.4c0,0.2-0.2,0.4-0.4,0.4h-2.3v1.4h2.7c0.2,0,0.4,0.2,0.4,0.4
			C27,43.9,26.8,44.1,26.6,44.1z M32.2,42.5c0,1-0.8,1.6-1.9,1.6c-0.7,0-1.4-0.2-2-0.7c-0.1-0.1-0.2-0.2-0.2-0.4
			c0-0.2,0.2-0.4,0.4-0.4c0.1,0,0.2,0,0.3,0.1c0.4,0.4,0.9,0.6,1.5,0.6c0.6,0,1-0.3,1-0.7v0c0-0.4-0.2-0.6-1.2-0.8
			c-1.1-0.3-1.8-0.6-1.8-1.6v0c0-0.9,0.8-1.6,1.8-1.6c0.7,0,1.2,0.2,1.7,0.5c0.1,0.1,0.2,0.2,0.2,0.4c0,0.2-0.2,0.4-0.4,0.4
			c-0.1,0-0.2,0-0.2-0.1c-0.4-0.3-0.8-0.4-1.2-0.4c-0.6,0-0.9,0.3-0.9,0.6v0c0,0.4,0.2,0.6,1.3,0.8C31.7,41.2,32.2,41.6,32.2,42.5
			L32.2,42.5z M38.2,43.4c-0.5,0.4-1.1,0.7-1.9,0.7c-1.6,0-2.7-1.2-2.7-2.8v0c0-1.5,1.1-2.8,2.8-2.8c0.8,0,1.4,0.2,1.8,0.6
			c0.1,0.1,0.2,0.2,0.2,0.4c0,0.3-0.2,0.5-0.5,0.5c-0.1,0-0.2,0-0.3-0.1c-0.4-0.3-0.8-0.5-1.3-0.5c-1,0-1.8,0.8-1.8,1.9v0
			c0,1.1,0.7,1.9,1.8,1.9c0.6,0,0.9-0.2,1.3-0.5c0.1-0.1,0.2-0.1,0.3-0.1c0.2,0,0.4,0.2,0.4,0.4C38.3,43.3,38.3,43.4,38.2,43.4z"/>
		<path class="st3" d="M41.9,4.8H19.4c-3.8,0-7,3.1-7,7v35.1c0,3.8,3.1,7,7,7h22.6c3.8,0,7-3.1,7-7V11.8C48.9,7.9,45.8,4.8,41.9,4.8
			z M46.1,46.9c0,2.3-1.9,4.2-4.2,4.2H19.4c-2.3,0-4.2-1.9-4.2-4.2V11.8c0-2.3,1.9-4.2,4.2-4.2h22.6c2.3,0,4.2,1.9,4.2,4.2V46.9z"/>
	</g>
</g>
<g id="Receiver" class="st0">
	<g class="st2">
		<path class="st3" d="M33.6,27c0,1.2,1,2.3,2.3,2.3s2.3-1,2.3-2.3c0-1.2-1-2.3-2.3-2.3S33.6,25.7,33.6,27z"/>
		<path class="st3" d="M26.2,12.3C26.2,12.3,26.2,12.3,26.2,12.3l-2.9,0c0,1-0.6,2-1.9,2v2.8C24,17.2,26.2,15,26.2,12.3z"/>
		<path class="st3" d="M38.2,12.4h-3.5c0,7.4-6,13.4-13.4,13.4v3.5C30.6,29.3,38.2,21.7,38.2,12.4z"/>
		<path class="st3" d="M32.5,12.4H29c0,4.3-3.5,7.8-7.8,7.8v3.5C27.5,23.7,32.5,18.6,32.5,12.4z"/>
		<path class="st3" d="M26.8,40h-1.4v1.8h1.4c0.7,0,1.1-0.4,1.1-0.9v0C27.9,40.3,27.5,40,26.8,40z"/>
		<path class="st3" d="M40.1,35.9H19.3c-0.3,0-0.6,0.3-0.6,0.6v9.7c0,0.3,0.3,0.6,0.6,0.6h20.8c0.3,0,0.6-0.3,0.6-0.6v-9.7
			C40.7,36.2,40.4,35.9,40.1,35.9z M28.9,40.9c0,0.9-0.5,1.4-1.2,1.6l1,1.3c0.1,0.1,0.2,0.2,0.2,0.4c0,0.3-0.2,0.4-0.5,0.4
			c-0.2,0-0.4-0.1-0.5-0.2l-1.3-1.7h-1.2v1.4c0,0.3-0.2,0.5-0.5,0.5c-0.3,0-0.5-0.2-0.5-0.5v-4.5c0-0.3,0.2-0.5,0.5-0.5h1.9
			c0.7,0,1.2,0.2,1.5,0.5C28.7,40,28.9,40.4,28.9,40.9L28.9,40.9z M34.3,44.6c-0.2,0-0.3-0.1-0.4-0.2l-1.4-1.9L31,44.3
			c-0.1,0.2-0.3,0.3-0.5,0.3c-0.2,0-0.4-0.2-0.4-0.4c0-0.1,0.1-0.2,0.1-0.4l1.6-2l-1.5-1.9c-0.1-0.1-0.1-0.2-0.1-0.4
			c0-0.3,0.2-0.5,0.5-0.5c0.2,0,0.3,0.1,0.4,0.2l1.4,1.8l1.3-1.8c0.1-0.2,0.3-0.3,0.5-0.3s0.4,0.2,0.4,0.4c0,0.1-0.1,0.2-0.1,0.4
			l-1.5,1.9l1.6,2c0.1,0.1,0.1,0.2,0.1,0.4C34.8,44.4,34.6,44.6,34.3,44.6z"/>
		<path class="st3" d="M41,5.2H18.4c-3.9,0-7,3.2-7,7v35.1c0,3.9,3.2,7,7,7H41c3.9,0,7-3.2,7-7V12.2C48,8.4,44.8,5.2,41,5.2z
			 M45.2,47.3c0,2.3-1.9,4.2-4.2,4.2H18.4c-2.3,0-4.2-1.9-4.2-4.2V12.2c0-2.3,1.9-4.2,4.2-4.2H41c2.3,0,4.2,1.9,4.2,4.2V47.3z"/>
	</g>
</g>
<g id="Wheels" class="st0">
	<g class="st2">
		<path class="st3" d="M29.9,5.2c-13.5,0-24.5,11-24.5,24.5c0,13.5,11,24.5,24.5,24.5c13.5,0,24.5-11,24.5-24.5
			C54.4,16.2,43.5,5.2,29.9,5.2z M29.9,51.5c-12,0-21.8-9.8-21.8-21.8c0-12,9.8-21.8,21.8-21.8c12,0,21.8,9.8,21.8,21.8
			C51.7,41.7,42,51.5,29.9,51.5z"/>
		<path class="st3" d="M29.9,15.4c-7.9,0-14.3,6.4-14.3,14.3C15.6,37.6,22,44,29.9,44s14.3-6.4,14.3-14.3
			C44.3,21.8,37.8,15.4,29.9,15.4z M31.3,18.2c3.3,0.4,6.2,2.1,8.1,4.7l-3,1.7c-1.2-1.5-3-2.6-5.1-3V18.2z M28.6,18.2v3.4
			c-2,0.3-3.8,1.4-5,2.9l-2.9-1.7C22.5,20.3,25.3,18.6,28.6,18.2z M19.3,34.3c-0.6-1.4-0.9-2.9-0.9-4.5c0-1.6,0.3-3.2,1-4.6l2.9,1.7
			c-0.3,0.9-0.5,1.9-0.5,2.9c0,1,0.2,2,0.5,2.9L19.3,34.3z M28.5,41.2c-3.2-0.4-6.1-2.1-7.9-4.6l2.9-1.7c1.2,1.5,3,2.6,5,2.9
			L28.5,41.2z M29.9,35.2c-0.1,0-0.2,0-0.3,0c-1.8-0.1-3.3-1.1-4.3-2.5c0-0.1-0.1-0.2-0.1-0.3c0-0.1-0.1-0.2-0.2-0.2
			c-0.4-0.7-0.6-1.6-0.6-2.5c0-0.9,0.2-1.8,0.6-2.5c0.1-0.1,0.1-0.1,0.2-0.2c0.1-0.1,0.1-0.2,0.1-0.3c0.9-1.4,2.5-2.4,4.3-2.5
			c0.1,0,0.2,0,0.3,0c0.1,0,0.2,0,0.3-0.1c1.8,0.1,3.4,1.1,4.3,2.5c0,0.1,0.1,0.3,0.1,0.4c0.1,0.1,0.2,0.2,0.2,0.3
			c0.3,0.7,0.5,1.5,0.5,2.4c0,0.9-0.2,1.7-0.6,2.5c-0.1,0.1-0.2,0.2-0.3,0.3c-0.1,0.1-0.1,0.2-0.1,0.4c-1,1.4-2.5,2.3-4.3,2.4
			C30.1,35.2,30,35.2,29.9,35.2z M31.2,41.3l0-3.4c2-0.3,3.8-1.3,5-2.8l2.9,1.7C37.3,39.2,34.4,40.9,31.2,41.3z M41.6,29.7
			c0,1.7-0.4,3.3-1,4.7l-2.9-1.7c0.4-0.9,0.6-1.9,0.6-3c0-1-0.2-1.9-0.5-2.8l3-1.7C41.2,26.6,41.6,28.1,41.6,29.7z"/>
	</g>
</g>
<g id="LandingGear" class="st0">
	<g class="st2">
		<path class="st3" d="M45.7,6.3l-8.7,16.1c-1.4,2.7-1.3,5.5,0.4,8.3c1.4,2.2,2.1,4.8,2.2,7.4H10.9C11,30.9,16.5,24.9,23.8,24
			c4.5-0.6,7.2-5.5,7.3-5.7l6.4-12h-8.7v2.9h3.9l-4.2,7.7c0,0-2.1,3.9-5.1,4.2C14.6,22.3,8,29.6,8,38.3c0,0.4,0,0.8,0,1.3l0.1,1.3
			h2.1c1.2,7.2,7.5,12.8,15.1,12.8c7.6,0,13.9-5.5,15.1-12.8h2.1l0.1-1.3c0-0.4,0-0.8,0-1.3c0-3.2-0.9-6.4-2.6-9.2
			c-1.2-1.9-1.3-3.7-0.3-5.4l7.8-14.6H52V6.3H45.7z M27.6,40.9c-0.6,0.6-1.4,0.9-2.3,0.9c-0.9,0-1.7-0.4-2.3-0.9H27.6z M25.3,50.8
			c-6,0-11-4.3-12.2-9.9h7.8c0.9,1.5,2.5,2.6,4.4,2.6c1.9,0,3.5-1,4.4-2.6h7.8C36.3,46.6,31.3,50.8,25.3,50.8z"/>
		<path class="st3" d="M13.2,34.1h3c1.4-3.7,5-6.1,9-6.1v-2.9C19.8,25.2,14.8,28.9,13.2,34.1z"/>
	</g>
</g>
<g id="HDCamera" class="st0">
	<g class="st2">
		<g>
			<path class="st3" d="M30,31.1c-1.8,0-3.4,0.7-4.7,1.8c0.2-0.1,0.5-0.1,0.8-0.1c1.3,0,2.4,1.1,2.4,2.4c0,1.3-1.1,2.4-2.4,2.4
				c-1.3,0-2.4-1.1-2.4-2.4c0-0.1,0-0.2,0-0.4c-0.6,1.1-1,2.3-1,3.6c0,4,3.2,7.2,7.2,7.2c4,0,7.2-3.2,7.2-7.2
				C37.2,34.4,34,31.1,30,31.1z"/>
			<path class="st3" d="M49.2,21.2H20.7c-0.7-0.8-1.7-1.4-2.8-1.4h-4.7c-1.2,0-2.2,0.5-2.9,1.4c-2.7,0.3-4.8,2.5-4.8,5.3v23.7
				c0,2.9,2.4,5.3,5.3,5.3h38.4c2.9,0,5.3-2.4,5.3-5.3V26.5C54.6,23.6,52.2,21.2,49.2,21.2z M10.8,52.3c-1.2,0-2.1-0.9-2.1-2.1V26.5
				c0-1.2,0.9-2.1,2.1-2.1h1.9v-0.9c0-0.2,0.2-0.5,0.5-0.5h4.7c0.2,0,0.5,0.2,0.5,0.5v0.9h9c-6.6,1.3-11.5,7-11.5,13.9
				c0,6.9,5,12.7,11.5,13.9H10.8z M19.6,38.3c0-5.7,4.7-10.4,10.4-10.4s10.4,4.7,10.4,10.4c0,5.7-4.7,10.4-10.4,10.4
				S19.6,44.1,19.6,38.3z M51.3,50.2c0,1.2-0.9,2.1-2.1,2.1H32.7c6.6-1.3,11.5-7,11.5-13.9c0-6.9-5-12.7-11.5-13.9h16.6
				c1.2,0,2.1,0.9,2.1,2.1V50.2z"/>
			<path class="st3" d="M45.4,26.8c-0.8,0-1.5,0.7-1.5,1.5c0,0.8,0.7,1.5,1.5,1.5c0.8,0,1.5-0.7,1.5-1.5
				C46.9,27.5,46.2,26.8,45.4,26.8z"/>
		</g>
		<path class="st3" d="M36.4,4.5l-7.9,15H23l3.1-5.8H22l-3.1,5.8h-5.5l7.9-15h5.5l-3,5.7h4.1l3-5.7H36.4z M41.8,7.9h1.7
			c0.5,0,0.9,0.1,1.1,0.2c0.3,0.1,0.4,0.3,0.5,0.5c0.1,0.2,0.1,0.5,0,0.7c-0.1,0.3-0.2,0.6-0.4,1l-1.8,3.4c-0.2,0.4-0.4,0.7-0.6,1
			c-0.2,0.3-0.5,0.5-0.8,0.7c-0.3,0.2-0.6,0.4-1,0.5c-0.4,0.1-0.8,0.2-1.3,0.2h-1.7L41.8,7.9z M30.2,19.5h10.4
			c0.9,0,1.7-0.1,2.4-0.3c0.7-0.2,1.3-0.4,1.9-0.8c0.5-0.4,1-0.8,1.5-1.3c0.4-0.5,0.9-1.2,1.2-1.9l3.4-6.3c0.4-0.7,0.6-1.4,0.8-1.9
			c0.1-0.5,0.1-1-0.1-1.3c-0.2-0.4-0.5-0.6-1-0.8c-0.5-0.2-1.2-0.3-2.1-0.3H38.2L30.2,19.5z"/>
	</g>
</g>
<g id="Transmitter" class="st0">
	<g class="st2">
		<path class="st3" d="M31.9,29.4h3.6c0,0,0,0,0,0c0.6-0.1,1.2-0.6,1.2-1.2c0,0,0,0,0,0v-3.6C34,24.6,31.9,26.7,31.9,29.4
			C31.9,29.4,31.9,29.4,31.9,29.4z"/>
		<path class="st3" d="M36.8,15.9v-3.5c-9.3,0-16.9,7.6-16.9,16.9h3.5C23.4,22,29.4,15.9,36.8,15.9z"/>
		<path class="st3" d="M36.8,18.1c-6.2,0-11.3,5.1-11.3,11.3H29c0-4.3,3.5-7.8,7.8-7.8V18.1z"/>
		<path class="st3" d="M41.3,5.3H18.7c-3.9,0-7,3.2-7,7v35.1c0,3.9,3.2,7,7,7h22.6c3.9,0,7-3.2,7-7V12.3C48.3,8.5,45.1,5.3,41.3,5.3
			z M45.5,47.4c0,2.3-1.9,4.2-4.2,4.2H18.7c-2.3,0-4.2-1.9-4.2-4.2V12.3c0-2.3,1.9-4.2,4.2-4.2h22.6c2.3,0,4.2,1.9,4.2,4.2V47.4z"/>
		<path class="st3" d="M33,39.7h-1.4v1.9H33c0.7,0,1.2-0.4,1.2-0.9v0C34.1,40,33.7,39.7,33,39.7z"/>
		<path class="st3" d="M40.4,36H19.6c-0.3,0-0.6,0.3-0.6,0.6v9.7c0,0.3,0.3,0.6,0.6,0.6h20.8c0.3,0,0.6-0.3,0.6-0.6v-9.7
			C41,36.3,40.7,36,40.4,36z M29.1,39.7h-1.4V44c0,0.3-0.2,0.5-0.5,0.5c-0.3,0-0.5-0.2-0.5-0.5v-4.3h-1.4c-0.3,0-0.5-0.2-0.5-0.5
			c0-0.2,0.2-0.5,0.5-0.5h3.7c0.2,0,0.4,0.2,0.4,0.5C29.5,39.5,29.3,39.7,29.1,39.7z M35.1,40.6c0,0.9-0.5,1.4-1.3,1.7l1.1,1.4
			c0.1,0.1,0.2,0.2,0.2,0.4c0,0.3-0.2,0.5-0.5,0.5c-0.2,0-0.4-0.1-0.5-0.3l-1.4-1.7h-1.2V44c0,0.3-0.2,0.5-0.5,0.5
			c-0.3,0-0.5-0.2-0.5-0.5v-4.7c0-0.3,0.2-0.5,0.5-0.5h2c0.7,0,1.3,0.2,1.6,0.6C35,39.7,35.1,40.1,35.1,40.6L35.1,40.6z"/>
	</g>
</g>
<g id="Waterproof" class="st0">
	<g class="st2">
		<path class="st3" d="M25.8,23.6c0.6-1.3,0.7-7.9,0.7-7.9s-5.3,4.1-5.9,5.4c-0.6,1.3,0,2.9,1.4,3.6C23.5,25.3,25.1,24.8,25.8,23.6z
			"/>
		<path class="st3" d="M25.9,32.5c-1.1,2.3,0,5.2,2.6,6.4c2.5,1.3,5.5,0.4,6.7-1.8c1.1-2.3,1.3-14.2,1.3-14.2S27,30.2,25.9,32.5z"/>
		<path class="st3" d="M48.9,10.7C43,7.3,36.7,5.5,30.2,5.5c-10.4,0-17.7,4.3-19.1,5.2l-0.7,0.4v14c0,12.2,9.1,22.4,17.6,28l2.1,1.4
			l2.1-1.4c8.6-6,17.5-14,17.5-27.9v-14L48.9,10.7z M46.7,25.2c0,12.6-8.2,19.9-16.2,25.5L30,50.9l-0.4-0.3
			c-7.9-5.1-16.3-14.5-16.3-25.5V12.8c2.1-1.2,8.4-4.3,16.9-4.3c5.7,0,11.3,1.5,16.5,4.4V25.2z"/>
	</g>
</g>
<g id="EasyAssembly" class="st0">
	<g class="st2">
		<path class="st3" d="M28.3,25.1c-0.4-0.4-0.5-0.8-0.3-1.5c0.5-2.1,0-4.3-1.6-5.9c-1.4-1.4-3.3-2-5.2-1.7c-0.7,0.1-0.4,0.6-0.2,0.7
			c0.2,0.2,2.2,2.2,2.4,2.4c0.3,0.3,0.3,0.7,0.2,1.2c-0.1,0.5-0.4,1.8-0.9,2.3c-0.5,0.5-1.8,0.8-2.4,1s-1.1-0.1-1.3-0.3
			c-0.2-0.2-2.2-2.2-2.4-2.4c-0.2-0.2-0.6-0.5-0.7,0.3c-0.3,1.8,0.3,3.8,1.7,5.2c1.6,1.6,3.8,2.1,5.9,1.6c0.6-0.1,1.1-0.1,1.4,0.3
			c0,0.1,0.5,0.5,1.2,1.3l3.3-3.3C29.1,25.8,28.6,25.4,28.3,25.1z"/>
		<path class="st3" d="M42.9,38.4L42.9,38.4L34.8,31L31,34.8c3.6,3.9,7.4,8.2,7.4,8.2l0,0c0,0,0.1,0.1,0.1,0.1
			c1.3,1.3,3.3,1.3,4.6,0c1.3-1.3,1.3-3.3,0-4.6C43,38.5,43,38.4,42.9,38.4z M41.4,41.5c-0.4,0.4-1.1,0.4-1.5,0
			c-0.4-0.4-0.4-1.1,0-1.5c0.4-0.4,1.1-0.4,1.5,0C41.9,40.4,41.9,41,41.4,41.5z"/>
		<path class="st3" d="M30,5.7C16.6,5.7,5.7,16.6,5.7,30c0,13.4,10.9,24.3,24.3,24.3c13.4,0,24.3-10.9,24.3-24.3
			C54.3,16.6,43.4,5.7,30,5.7z M12.8,41.5c-2.2-3.3-3.5-7.2-3.5-11.5C9.3,18.6,18.6,9.3,30,9.3c4.2,0,8,1.2,11.3,3.4
			c0.8,0.9,1,2.2,0.5,3.4L30.6,27.2l-3.4,3.4L16,41.9C14.9,42.3,13.7,42.2,12.8,41.5z M30,50.7c-3.7,0-7.2-1-10.2-2.7
			c-0.9-0.9-1.1-2.3-0.6-3.5L30,33.7l1.9-1.9l12.6-12.6c1.2-0.5,2.5-0.3,3.4,0.6c1.7,3,2.7,6.5,2.7,10.3
			C50.7,41.4,41.4,50.7,30,50.7z"/>
	</g>
</g>
<g id="Servos" class="st0">
	<g class="st2">
		<path class="st3" d="M48.8,37.9c-0.7-0.7-1.4-1.5-2.2-2.2c-1.2-1.2-4-4.2-4-5.7c0-0.1,0.1-1.5,4.1-5.7c0.6-0.7,1.3-1.3,2.1-2.2
			l0.1-0.1c0.1-0.1,0.3-0.3,0.4-0.4l0.1-0.1c3.3-3.3,5-6.4,5-9.3c0-1.8-0.6-3.4-1.9-4.7c-1.7-1.7-4.2-2.3-6.9-1.5l-0.1,0
			c-1,0.3-2,0.8-3,1.4c-1.3,0.8-2.7,1.9-4,3.2l-1,1c-5.5,5.4-7.2,5.8-7.6,5.8c-0.4,0-2.1-0.4-7.5-5.8l-1-1c-1.4-1.3-2.7-2.4-4-3.2
			c-1-0.6-2-1.1-3-1.4c-2.7-0.8-5.2-0.2-6.9,1.5c-1.2,1.2-1.9,2.8-1.9,4.6c0,2.9,1.7,6,5,9.3l0.3,0.3c0.1,0.1,0.2,0.2,0.4,0.4
			l0.8,0.8c0.5,0.5,0.9,0.9,1.3,1.3c1.2,1.2,3.9,4,4,5.6V30c0,0.1-0.1,1.5-4,5.7c-0.7,0.7-1.4,1.5-2.1,2.2c-0.2,0.2-0.4,0.4-0.6,0.6
			c-3.3,3.3-5,6.5-5,9.3c0,1.8,0.6,3.4,1.9,4.7c1.7,1.7,4.3,2.3,7,1.5c1-0.3,2-0.8,3-1.4c1.3-0.8,2.6-1.9,4-3.2l1-1
			c2.6-2.6,5.8-5.8,7.5-5.8c1.7,0,4.9,3.2,7.5,5.8l0.3,0.3c0.2,0.2,0.4,0.4,0.7,0.7c1.4,1.4,2.7,2.4,4,3.2c1,0.6,2,1.1,3,1.4
			c0.8,0.2,1.6,0.4,2.3,0.4c1.8,0,3.4-0.6,4.6-1.9c1.2-1.2,1.9-2.8,1.9-4.7c0-2.9-1.7-6-5-9.3C49.2,38.3,48.9,38.1,48.8,37.9z
			 M49.9,49.9c-0.8,0.8-2,1-3.4,0.6c-0.7-0.2-1.4-0.5-2.1-1c-1.1-0.7-2.2-1.6-3.3-2.7c-0.2-0.2-0.4-0.4-0.7-0.7l-0.3-0.3
			C35.8,41.6,33,39,30,39c-2.9,0-5.8,2.6-10.1,6.9l-1,1c-1.2,1.2-2.3,2.1-3.4,2.7c-0.7,0.5-1.4,0.8-2.1,1c-1.4,0.4-2.6,0.2-3.4-0.6
			c-0.6-0.6-0.8-1.3-0.8-2.1c0-1.8,1.4-4.2,3.9-6.8c0.2-0.2,0.4-0.4,0.6-0.6c0.7-0.7,1.5-1.5,2.2-2.3c4.4-4.8,5-6.9,5-8.2l0-0.3
			c-0.2-2.4-2-4.8-5-7.9c-0.4-0.4-0.9-0.9-1.3-1.4l-0.9-0.9c-0.1-0.1-0.2-0.2-0.3-0.3l-0.3-0.3c-2.6-2.6-3.9-4.9-3.9-6.8
			c0-0.8,0.3-1.5,0.8-2.1c0.8-0.8,2-1,3.4-0.6c0.7,0.2,1.4,0.5,2.1,1c1.1,0.7,2.2,1.6,3.3,2.7l1,1C24.8,19,27.8,21,30,21
			c2.2,0,5.2-2,10.1-6.9l1-1c1.1-1.1,2.3-2,3.3-2.7c0.7-0.4,1.4-0.8,2.1-1l0.1,0c1.4-0.4,2.6-0.2,3.4,0.6c0.6,0.6,0.8,1.3,0.8,2.1
			c0,1.8-1.4,4.2-3.9,6.8l-0.1,0.1c-0.2,0.2-0.3,0.3-0.5,0.5c-0.9,0.9-1.6,1.6-2.2,2.3c-4.5,4.8-5,7-5,8.2c0,2.5,1.9,5,5,8.2
			c0.7,0.8,1.5,1.5,2.2,2.2c0.2,0.2,0.4,0.4,0.6,0.6c2.6,2.6,3.9,4.9,3.9,6.8C50.8,48.7,50.5,49.4,49.9,49.9z"/>
		<path class="st3" d="M32.1,29.3c0.3-0.4,0.3-0.9,0-1.3L32,27.9c-0.3-0.4-0.9-0.4-1.3,0L30.6,28c-0.3,0.3-0.9,0.3-1.3,0l-0.1-0.1
			c-0.3-0.3-0.9-0.4-1.3,0L27.9,28c-0.3,0.3-0.3,0.9,0,1.3l0.1,0.1c0.3,0.3,0.3,0.9,0,1.3l-0.1,0.1c-0.3,0.3-0.3,0.9,0,1.3l0.1,0.1
			c0.3,0.3,0.9,0.3,1.3,0l0.1-0.1c0.3-0.3,0.9-0.3,1.3,0l0.1,0.1c0.3,0.3,0.9,0.3,1.3,0l0.1-0.1c0.3-0.3,0.3-0.9,0-1.3L32,30.6
			C31.6,30.3,31.6,29.7,32.1,29.3L32.1,29.3z"/>
		<path class="st3" d="M30,23.3c-1.8,0-3.5,0.7-4.7,2c-1.3,1.3-2,2.9-2,4.7c0,1.8,0.7,3.5,2,4.7c1.3,1.3,2.9,2,4.7,2
			c1.8,0,3.5-0.7,4.7-2c1.3-1.3,2-2.9,2-4.7c0-1.8-0.7-3.5-2-4.7C33.5,24,31.8,23.3,30,23.3z M33.4,33.4c-1.9,1.9-5,1.9-6.8,0
			c-1-0.9-1.4-2.2-1.4-3.4c0-1.2,0.5-2.5,1.4-3.4c1.9-1.9,4.9-1.9,6.8,0c0.9,0.9,1.4,2.2,1.4,3.4C34.8,31.2,34.4,32.5,33.4,33.4z"/>
	</g>
</g>
<g id="Wings" class="st0">
</g>
<g id="Changers" class="st0">
	<path class="st1" d="M50.9,11.8C51,10.4,50.5,9,49.5,8c-0.6-0.6-1.3-1.1-2.1-1.4l-0.1,0l-0.1,0l-0.1,0l0,0l0,0
		c-0.6-0.2-1.2-0.3-1.8-0.3c-1.2,0-2.4,0.4-3.4,1.2l-0.2,0.1l-0.1,0.1c-1,0.8-7.4,5.4-10.8,7.8l-0.3,0.2c-3.8,2.7-8.3,6-13.5,9.7
		c-2.9,2.1-6,4.3-4.7,8.1c0.5,1.5,1.7,2.6,3.2,3.2c0.8,0.3,1.6,0.4,2.3,0.4c-3.5,3.6-6.7,7-7.2,7.6c-0.1,0.1-0.3,0.3-0.4,0.5
		c-1.9,2.3-1.8,5.3,0.1,7.3c0.5,0.5,1.2,0.9,1.9,1.2c0.6,0.2,1.2,0.3,1.8,0.3c1.2,0,2.3-0.4,3.3-1.1c0.2-0.1,0.3-0.2,0.5-0.4
		c0.5-0.4,7.2-5.5,24.7-18.9l0.6-0.5l0.1-0.1l0.1-0.1c2.2-1.9,2.7-4.9,1.1-7.2c-0.6-0.9-1.5-1.6-2.6-2c-0.2-0.1-0.3-0.1-0.5-0.2
		l7.7-8C49.7,15,50.8,13.7,50.9,11.8z M46.3,12.7L33.9,25.5c-1,0.9-1.9,1.8-2.2,2.3c0.1,0,0.2,0,0.3,0c0.3,0,0.6,0,0.8,0l0.1,0
		l6.9-0.4c0,0,0,0,0.1,0c0.1,0,0.5,0,0.8,0.1c0.3,0.1,0.5,0.3,0.7,0.5c0.5,0.7,0.1,1.5-0.4,1.9l-0.6,0.4
		C24.9,42,15.9,48.9,15.4,49.2c-0.1,0.1-0.2,0.1-0.2,0.2c-0.3,0.2-0.6,0.3-1,0.3c-0.1,0-0.3,0-0.4-0.1c-0.1-0.1-0.3-0.1-0.4-0.2
		C13,49,13,48.2,13.6,47.5c0-0.1,0.1-0.2,0.2-0.3c0.8-0.9,11.5-12.1,12.8-13.4c0.2-0.3,0.4-0.7,0.3-0.8l0,0c0,0-0.1,0-0.2-0.1
		c-0.2-0.1-0.5-0.1-0.8-0.1c-0.1,0-0.2,0-0.3,0c-1.2,0.1-6.2,0.1-7.1,0.1c0,0-0.1,0-0.1,0c-0.3,0-0.8,0-1.3-0.2
		c-0.5-0.2-0.7-0.5-0.8-0.7c-0.3-0.9,0.7-1.7,3.2-3.5c5.3-3.8,9.9-7.1,13.7-9.8c6.3-4.5,10.9-7.8,11.2-8.1c0.3-0.2,0.6-0.3,0.9-0.3
		c0.2,0,0.4,0,0.6,0.1l0.1,0c0.2,0.1,0.4,0.2,0.5,0.3c0.2,0.2,0.3,0.6,0.3,0.9C46.8,12.2,46.4,12.6,46.3,12.7z"/>
</g>
<g id="Batteries" class="st0">
	<g class="st2">
		<path class="st3" d="M38.9,8.6H36V6.5c0-0.5-0.4-0.9-0.9-0.9H24.8C24.4,5.6,24,6,24,6.5v2.1h-2.8c-1,0-1.7,0.8-1.7,1.7v0v42.3v0
			c0,1,0.8,1.7,1.7,1.7h17.7c1,0,1.7-0.8,1.7-1.7v0V10.4v0C40.6,9.4,39.8,8.6,38.9,8.6z M37.9,13.2v36.6v0c0,0.8-0.7,1.5-1.5,1.5
			H23.6c-0.8,0-1.5-0.7-1.5-1.5v0V13.2v0c0-0.8,0.7-1.5,1.5-1.5l12.8,0C37.2,11.6,37.9,12.3,37.9,13.2L37.9,13.2z"/>
		<path class="st3" d="M35.1,27.5c-0.1,0-0.3,0-0.4,0.1l-10.3,3.6c-0.3,0.1-0.5,0.5-0.5,0.9v15.7v0c0,0.6,0.6,1.1,1.2,1.1h9.8
			c0.6,0,1.1-0.5,1.1-1.1v0V28.4C36,27.9,35.6,27.5,35.1,27.5z"/>
	</g>
</g>
<g id="HighDefFPV" class="st0">
	<path class="st1" d="M30.1,10.2l-7.9,15h-5.5l3.1-5.8h-4.1l-3.1,5.8H7.1l7.9-15h5.5l-3,5.7h4.1l3-5.7H30.1z M35.5,13.6h1.7
		c0.5,0,0.9,0.1,1.1,0.2c0.3,0.1,0.4,0.3,0.5,0.5c0.1,0.2,0.1,0.5,0,0.7c-0.1,0.3-0.2,0.6-0.4,1l-1.8,3.4c-0.2,0.4-0.4,0.7-0.6,1
		c-0.2,0.3-0.5,0.5-0.8,0.7c-0.3,0.2-0.6,0.4-1,0.5c-0.4,0.1-0.8,0.2-1.3,0.2h-1.7L35.5,13.6z M23.9,25.2h10.4
		c0.9,0,1.7-0.1,2.4-0.3c0.7-0.2,1.3-0.4,1.9-0.8c0.5-0.4,1-0.8,1.5-1.3c0.4-0.5,0.9-1.2,1.2-1.9l3.4-6.3c0.4-0.7,0.6-1.4,0.8-1.9
		c0.1-0.5,0.1-1-0.1-1.3c-0.2-0.4-0.5-0.6-1-0.8c-0.5-0.2-1.2-0.3-2.1-0.3H31.9L23.9,25.2z"/>
	<path class="st1" d="M53.8,9.8c-0.8-0.9-1.9-1.5-3-1.5h0c-1.2,0-2.3,0.5-3,1.5c-0.6,0.8-1,1.8-1,2.8v14.9h-7.8
		c-1.2-0.8-2.7-1.2-4.3-1.2c0,0,0,0,0,0c-0.2,0-0.4,0-0.6,0c-1.7,0.1-2.9,0.6-3.7,1.2h-3.1h-0.1h-3.1c-0.8-0.6-2-1.1-3.7-1.2
		c-0.2,0-0.4,0-0.6,0c-1.6,0-3.1,0.4-4.3,1.2H8.1c-1.6,0-2.9,1.3-2.9,2.9l0,13.7c0,0.6,0.2,1.2,0.5,1.6c0.1,0.1,1,1.4,2.6,2.7
		c2.2,1.7,4.8,2.8,7.6,3c0.9,0.1,1.8,0.1,2.6,0.1c2.4,0,4.2-0.4,5.7-1.1c1.5-0.7,2.2-1.7,2.7-2.2h0.3h0.1h0.3
		c0.4,0.5,1.2,1.5,2.7,2.2c1.5,0.7,3.3,1.1,5.7,1.1c0.8,0,1.7,0,2.6-0.1c1.5-0.1,3-0.5,4.5-1.1c1.1-0.5,2.2-1.1,3.3-1.8
		c1.8-1.2,2.8-2.5,2.9-2.6c0.4-0.5,0.7-1.2,0.7-1.9l0-0.4c0.3,0.1,0.6,0.1,0.9,0.1h0c1.2,0,2.3-0.5,3-1.5c0.6-0.8,1-1.8,1-2.8V12.6
		C54.8,11.6,54.4,10.6,53.8,9.8z M8.1,30.5h8.4c0.5-0.5,1.5-1.2,3.3-1.2c0.1,0,0.3,0,0.4,0c1.6,0.1,2.4,0.7,2.7,1.2h4.2h0.1h4.2
		c0.4-0.5,1.1-1.1,2.7-1.2c0.1,0,0.3,0,0.4,0c1.7,0,2.8,0.7,3.3,1.2h8.8V33c0,0,0,0.3-0.2,0.5c-0.2,0.2-0.5,0.2-0.5,0.2
		c-0.7,0.1-1.6,0.2-2.6,0.3c-3.9,0.3-10.4,0.9-15.9,1c-0.6,0-1.2,0-1.8,0c-4.9,0-10.2-0.5-13.7-0.9c-1.4-0.2-2.5-0.3-3.3-0.5
		c-0.1,0-0.2,0-0.2,0c-0.1,0-0.3,0-0.4,0V30.5z M51.9,39.5c0,0.7-0.5,1.4-1.1,1.4h0c-0.5,0-1-0.4-1.1-1h-2.8l0,4.2
		c0,0-3.4,4-8.7,4.5c-0.9,0.1-1.6,0.1-2.3,0.1c-4.6,0-5.6-1.5-6.2-2.3c-0.3-0.3-0.8-0.9-0.8-0.9h-1.6h-0.1h-1.6c0,0-0.5,0.6-0.8,0.9
		c-0.7,0.8-1.6,2.3-6.2,2.3c-0.7,0-1.5,0-2.3-0.1c-5.3-0.5-8-4.4-8-4.4l0-7.6c0.6,0.1,1.9,0.2,3.5,0.4c3.5,0.4,9,1,14.2,1
		c0.6,0,1.1,0,1.7,0c5.7-0.2,12.3-0.8,16.1-1.1c2-0.2,3.2-0.3,3.4-0.3c1.5-0.1,2.6-1.4,2.6-2.9v-3.2c0-0.1,0-0.2,0-0.2V12.6
		c0-0.7,0.5-1.4,1.1-1.4h0c0.6,0,1.1,0.6,1.1,1.4V39.5z"/>
</g>
<g id="FPVHeadset" class="st0">
	<path class="st1" d="M53.8,7.5C53,6.6,51.9,6,50.7,6h0c-1.2,0-2.3,0.5-3,1.5c-0.6,0.8-1,1.8-1,2.8v14.9h-7.8
		c-1.2-0.8-2.7-1.2-4.3-1.2c0,0,0,0,0,0c-0.2,0-0.4,0-0.6,0c-1.7,0.1-2.9,0.6-3.7,1.2h-3.1h-0.1h-3.1c-0.8-0.6-2-1.1-3.7-1.2
		c-0.2,0-0.4,0-0.6,0c-1.6,0-3.1,0.4-4.3,1.2H8.1c-1.6,0-2.9,1.3-2.9,2.9l0,13.7c0,0.6,0.2,1.2,0.5,1.6c0.1,0.1,1,1.4,2.6,2.7
		c2.2,1.7,4.8,2.8,7.6,3c0.9,0.1,1.8,0.1,2.6,0.1c2.4,0,4.2-0.4,5.7-1.1c1.5-0.7,2.2-1.7,2.7-2.2h0.3h0.1h0.3
		c0.4,0.5,1.2,1.5,2.7,2.2c1.5,0.7,3.3,1.1,5.7,1.1c0.8,0,1.7,0,2.6-0.1c1.5-0.1,3-0.5,4.5-1.1c1.1-0.5,2.2-1.1,3.3-1.8
		c1.8-1.2,2.8-2.5,2.9-2.6c0.4-0.5,0.7-1.2,0.7-1.9l0-0.4c0.3,0.1,0.6,0.1,0.9,0.1h0c1.2,0,2.3-0.5,3-1.5c0.6-0.8,1-1.8,1-2.8V10.3
		C54.8,9.3,54.4,8.3,53.8,7.5z M8.1,28.1h8.4c0.5-0.5,1.5-1.2,3.3-1.2c0.1,0,0.3,0,0.4,0c1.6,0.1,2.4,0.7,2.7,1.2h4.2h0.1h4.2
		c0.4-0.5,1.1-1.1,2.7-1.2c0.1,0,0.3,0,0.4,0c1.7,0,2.8,0.7,3.3,1.2h8.8v2.5c0,0,0,0.3-0.2,0.5c-0.2,0.2-0.5,0.2-0.5,0.2
		c-0.7,0.1-1.6,0.2-2.6,0.3c-3.9,0.3-10.4,0.9-15.9,1c-0.6,0-1.2,0-1.8,0c-4.9,0-10.2-0.5-13.7-0.9c-1.4-0.2-2.5-0.3-3.3-0.5
		c-0.1,0-0.2,0-0.2,0c-0.1,0-0.3,0-0.4,0V28.1z M51.9,37.2c0,0.7-0.5,1.4-1.1,1.4h0c-0.5,0-1-0.4-1.1-1h-2.8l0,4.2
		c0,0-3.4,4-8.7,4.5c-0.9,0.1-1.6,0.1-2.3,0.1c-4.6,0-5.6-1.5-6.2-2.3c-0.3-0.3-0.8-0.9-0.8-0.9h-1.6h-0.1h-1.6c0,0-0.5,0.6-0.8,0.9
		c-0.7,0.8-1.6,2.3-6.2,2.3c-0.7,0-1.5,0-2.3-0.1c-5.3-0.5-8-4.4-8-4.4l0-7.6c0.6,0.1,1.9,0.2,3.5,0.4c3.5,0.4,9,1,14.2,1
		c0.6,0,1.1,0,1.7,0c5.7-0.2,12.3-0.8,16.1-1.1c2-0.2,3.2-0.3,3.4-0.3c1.5-0.1,2.6-1.4,2.6-2.9v-3.2c0-0.1,0-0.2,0-0.2V10.3
		c0-0.7,0.5-1.4,1.1-1.4h0c0.6,0,1.1,0.6,1.1,1.4V37.2z"/>
</g>
<g id="GlowIgniter" class="st0">
	<g class="st2">
		<path class="st3" d="M12.1,46.1l13.2-13.2c0,0-5.4-5.4-5.2-5.6c0.2-0.2,5.2,4.1,5.2,4.1l3.2-3.2c0,0-0.3-0.6-0.8-1.3
			c-0.9-1.5-0.7-2.4,0.3-3.3c0.9-0.9,12.1-12.1,12.5-12.5c0.4-0.4,1.6-1.6,5.9,2.6c4.1,4.1,2.9,5.4,2.5,5.8
			C48.5,19.8,37.3,31,36.3,32c-0.9,0.9-1.8,1.2-3.2,0.3c-0.7-0.4-1.3-0.7-1.3-0.7l-3.2,3.2v0c0.1,0.1,4.1,4.8,3.9,5
			c-0.2,0.2-5.5-5-5.5-5L13.9,47.9L13,47L12.1,46.1 M7.1,46.1l2.5,2.5l1.8,1.8l2.5,2.5l2.5-2.5l10.9-10.9c0.1,0.1,0.3,0.2,0.4,0.3
			c0.9,0.7,1.6,1.3,2.1,1.7c0.4,0.3,0.7,0.5,0.9,0.7c2,1.3,3.8,0.6,4.7-0.3c0.7-0.7,2.1-2.7-0.4-5.6c1.4-0.1,2.7-0.7,3.8-1.9
			L51.3,22c1.9-1.9,3-5.2-2.5-10.7c-5.6-5.6-9-4.5-10.8-2.6L25.5,21.1c-1.2,1.2-1.8,2.5-1.9,3.8c0,0,0,0,0,0
			c-2.8-2.5-4.7-1.3-5.6-0.4c-2.3,2.3-0.3,4.8,0.4,5.6c0.4,0.5,1,1.3,1.8,2.2c0.1,0.2,0.3,0.3,0.4,0.5L9.6,43.7L7.1,46.1L7.1,46.1z"
			/>
	</g>
</g>
<g id="Durable" class="st0">
	<g class="st2">
		<path class="st3" d="M53.1,20.2L44.1,8.5c-1.3-1.7-4-3-6.1-3H22c-2.1,0-4.9,1.4-6.1,3L6.9,20.2c-1.3,1.7-1.3,4.4,0,6l20.8,27
			c0.6,0.8,1.5,1.2,2.3,1.2c0.8,0,1.7-0.4,2.3-1.2l20.7-27C54.3,24.6,54.3,21.8,53.1,20.2z M50.7,24.4L30,51.2L9.4,24.4
			c-0.4-0.6-0.4-1.8,0-2.3l8.9-11.6C19,9.5,20.9,8.6,22,8.6h16c1.1,0,3,0.9,3.7,1.8L50.6,22C51.1,22.6,51.1,23.8,50.7,24.4z"/>
		<path class="st3" d="M39.4,13.1c-0.8-1-2.4-1.8-3.6-1.8H30v33.1c0.8-0.3,1.5-0.8,2-1.4L45.8,25c0.8-1,0.7-2.6,0-3.6L39.4,13.1z"/>
	</g>
</g>
<g id="CustomLook" class="st0">
	<g class="st2">
		<path class="st3" d="M36.8,4.7l-9.7,9.7l-0.2,0.2c-1.1,1.6-0.9,3.7,0.4,5c0.2,0.2,1,0.9,2.3,0.9c0.7,0,1.4-0.2,2.2-0.6
			c0.4-0.2,0.9-0.5,1.4-0.8c0.6-0.4,1.7-1.1,2.5-1.4c0,0.1-0.1,0.1-0.1,0.2c-1,1.9-2.9,5.4-0.8,7.6c0.4,0.4,1.2,1,2.5,1
			c1.4,0,2.8-0.6,3.4-0.9c0,0,0,0,0,0c-0.1,0.2-0.1,0.3-0.2,0.5c-0.9,2.3-0.8,4,0.3,5.1c0.6,0.7,1.5,1.1,2.4,1.1c1,0,2-0.4,3-1.2
			l8.4-8.4L36.8,4.7z M44.3,28.6c-0.4,0.3-0.8,0.5-0.9,0.5l0,0c0,0,0,0,0,0c0,0-0.2-0.4,0.3-1.9c0.1-0.1,0.1-0.3,0.2-0.4
			c0.4-1,1.2-2.9-0.6-4.2c-0.4-0.3-0.9-0.5-1.5-0.5c-0.9,0-1.8,0.4-2,0.5l-0.1,0c-0.4,0.2-1.4,0.6-2.1,0.6c-0.2,0-0.3,0-0.3,0
			c-0.1-0.1-0.4-0.7,1.3-3.8c1.4-2.6,0.5-3.9,0-4.4c-0.3-0.3-0.9-0.7-1.8-0.7c-1.4,0-3.1,0.9-5,2.2c-0.5,0.3-0.9,0.6-1.2,0.7
			c-0.6,0.3-0.7,0.2-0.8,0.2c-0.2-0.2-0.3-0.6-0.1-0.9l7.3-7.3l13.5,13.5L44.3,28.6z"/>
		<path class="st3" d="M15.5,26l0.6,1c1.8,3.3,2.7,7.1,2,7.8c-2,1.9-4.4,2.7-4.4,2.7c-0.2,0.1-4.5,1.4-6.8,5.2
			c-1.8,3.1-2.3,7.6,0,9.8c1,1,2.5,1.6,4.3,1.6c1.8,0,3.9-0.6,5.6-1.6c3.8-2.2,5.2-6.6,5.2-6.8c0,0,0.8-2.4,2.7-4.4
			c0.1-0.1,0.4-0.2,1-0.2c2.2,0,5.7,1.6,6.8,2.2l1,0.6l6.8-6.8L22.2,19.2L15.5,26z M32.8,40C31.2,39.3,28,38,25.5,38
			c-1.4,0-2.5,0.4-3.2,1.2c-2.5,2.6-3.4,5.6-3.4,5.7c0,0-1,3.3-3.8,4.9c-1.2,0.7-2.7,1.1-4,1.1c-0.9,0-1.6-0.2-2-0.6L9,50.2
			c-0.9-0.8-0.9-3.6,0.5-6c1.6-2.7,4.9-3.8,4.9-3.8c0.1,0,3.1-0.9,5.7-3.4c2.5-2.4,0.4-7.8-0.9-10.5l2.9-2.9l13.5,13.5L32.8,40z"/>
		<path class="st3" d="M10.4,45.8c-0.9,0.9-0.9,2.3,0,3.1c0.9,0.9,2.3,0.9,3.1,0c0.9-0.9,0.9-2.3,0-3.1C12.7,45,11.3,45,10.4,45.8z"
			/>
	</g>
</g>
<g id="Camera" class="st0">
	<g class="st2">
		<path class="st3" d="M30,20.8c-1.8,0-3.4,0.7-4.7,1.8c0.2-0.1,0.5-0.1,0.8-0.1c1.3,0,2.4,1.1,2.4,2.4c0,1.3-1.1,2.4-2.4,2.4
			c-1.3,0-2.4-1.1-2.4-2.4c0-0.1,0-0.2,0-0.4c-0.6,1.1-1,2.3-1,3.6c0,4,3.2,7.2,7.2,7.2c4,0,7.2-3.2,7.2-7.2
			C37.2,24,34,20.8,30,20.8z"/>
		<path class="st3" d="M49.2,10.8H20.7C20,10,19,9.5,17.8,9.5h-4.7c-1.2,0-2.2,0.5-2.9,1.4c-2.7,0.3-4.8,2.5-4.8,5.3v23.7
			c0,2.9,2.4,5.3,5.3,5.3h38.4c2.9,0,5.3-2.4,5.3-5.3V16.2C54.6,13.2,52.2,10.8,49.2,10.8z M10.8,42c-1.2,0-2.1-0.9-2.1-2.1V16.2
			c0-1.2,0.9-2.1,2.1-2.1h1.9v-0.9c0-0.2,0.2-0.5,0.5-0.5h4.7c0.2,0,0.5,0.2,0.5,0.5v0.9h9c-6.6,1.3-11.5,7-11.5,13.9
			c0,6.9,5,12.7,11.5,13.9H10.8z M19.6,28c0-5.7,4.7-10.4,10.4-10.4S40.4,22.3,40.4,28c0,5.7-4.7,10.4-10.4,10.4S19.6,33.8,19.6,28z
			 M51.3,39.8c0,1.2-0.9,2.1-2.1,2.1H32.7c6.6-1.3,11.5-7,11.5-13.9c0-6.9-5-12.7-11.5-13.9h16.6c1.2,0,2.1,0.9,2.1,2.1V39.8z"/>
		<path class="st3" d="M45.4,16.5c-0.8,0-1.5,0.7-1.5,1.5c0,0.8,0.7,1.5,1.5,1.5c0.8,0,1.5-0.7,1.5-1.5
			C46.9,17.1,46.2,16.5,45.4,16.5z"/>
	</g>
</g>
<g id="Light" class="st0">
	<g class="st2">
		<path class="st3" d="M30,13.1c0.7,0,1.2-0.5,1.2-1.2V6.8c0-0.7-0.5-1.2-1.2-1.2c-0.7,0-1.2,0.5-1.2,1.2v5.1
			C28.8,12.6,29.3,13.1,30,13.1z"/>
		<path class="st3" d="M52.6,29.1h-5.1c-0.7,0-1.2,0.5-1.2,1.2c0,0.7,0.5,1.2,1.2,1.2h5.1c0.7,0,1.2-0.5,1.2-1.2
			C53.8,29.6,53.3,29.1,52.6,29.1z"/>
		<path class="st3" d="M42.4,18.2c0.3,0,0.6-0.1,0.9-0.4l3.6-3.6c0.5-0.5,0.5-1.2,0-1.7c-0.5-0.5-1.3-0.5-1.7,0l-3.6,3.6
			c-0.2,0.2-0.4,0.5-0.4,0.9c0,0.3,0.1,0.6,0.4,0.9C41.7,18.1,42,18.2,42.4,18.2z"/>
		<path class="st3" d="M44.3,41.8c-0.5-0.5-1.3-0.5-1.7,0c-0.5,0.5-0.5,1.2,0,1.7l3.6,3.6c0.2,0.2,0.5,0.4,0.9,0.4
			c0.3,0,0.6-0.1,0.9-0.4c0.5-0.5,0.5-1.2,0-1.7L44.3,41.8z"/>
		<path class="st3" d="M13.7,30.3c0-0.7-0.5-1.2-1.2-1.2H7.4c-0.7,0-1.2,0.5-1.2,1.2c0,0.7,0.5,1.2,1.2,1.2h5.1
			C13.2,31.5,13.7,31,13.7,30.3z"/>
		<path class="st3" d="M16.8,17.9c0.2,0.2,0.5,0.4,0.9,0.4c0.3,0,0.6-0.1,0.9-0.4c0.2-0.2,0.4-0.5,0.4-0.9c0-0.3-0.1-0.6-0.4-0.9
			l-3.6-3.6c-0.5-0.5-1.3-0.5-1.7,0c-0.5,0.5-0.5,1.2,0,1.7L16.8,17.9z"/>
		<path class="st3" d="M15.7,41.8l-3.6,3.6c-0.2,0.2-0.4,0.5-0.4,0.9c0,0.3,0.1,0.6,0.4,0.9c0.2,0.2,0.5,0.4,0.9,0.4
			c0.3,0,0.6-0.1,0.9-0.4l3.6-3.6c0.5-0.5,0.5-1.2,0-1.7C16.9,41.3,16.1,41.3,15.7,41.8z"/>
		<path class="st3" d="M43.1,28.9c0-7.2-5.9-13-13.1-13c-7.2,0-13.1,5.8-13.1,13c-0.1,0.9-0.1,4.1,2,7.5c1.8,2.8,1.8,4,1.8,4.2
			l0,0.9c0,0.5,0.1,1.1,0.4,1.6c-0.1,0.4-0.2,0.8-0.2,1.3c0,0.5,0.1,1.1,0.3,1.5c-0.2,0.5-0.3,1-0.3,1.5c0,1.6,0.9,3,2.3,3.6
			c0.7,2.1,2.6,3.5,4.8,3.5H32c2.2,0,4.1-1.4,4.8-3.5c1.4-0.6,2.3-2,2.3-3.6c0-0.5-0.1-1.1-0.3-1.5c0.2-0.5,0.3-1,0.3-1.5
			c0-0.4-0.1-0.9-0.2-1.3c0.2-0.5,0.4-1.1,0.4-1.6l0-0.9c0-0.2,0.1-1.4,1.8-4.2C43.2,32.9,43.2,29.7,43.1,28.9z M32,51.5H28
			c-1.1,0-2-0.9-2-2h8.1C34.1,50.6,33.2,51.5,32,51.5z M35.1,48.4H24.9c-0.6,0-1-0.5-1-1c0-0.6,0.5-1,1-1h10.3c0.6,0,1,0.5,1,1
			C36.2,47.9,35.7,48.4,35.1,48.4z M35.1,45.3H24.9c-0.6,0-1-0.5-1-1c0-0.6,0.5-1,1-1h10.3c0.6,0,1,0.5,1,1
			C36.2,44.8,35.7,45.3,35.1,45.3z M38.6,34.7c-1.9,3-2.3,4.8-2.3,5.8l0,0.9c0,0.5-0.4,0.8-0.8,0.8h-11c-0.5,0-0.8-0.4-0.8-0.8
			l0-0.9c0-1-0.4-2.7-2.3-5.8c-1.8-2.9-1.6-5.8-1.6-5.8c0-5.6,4.6-10.2,10.2-10.2c5.6,0,10.2,4.6,10.2,10.2
			C40.2,28.9,40.4,31.8,38.6,34.7z"/>
	</g>
</g>
<g id="Gasoline" class="st0">
	<g class="st2">
		<path class="st3" d="M35.5,40.6V9c-1.4-0.4-6.7-1.9-13.8-1.9c-4.8,0-9.5,0.6-13.9,1.9v31.5c0,0.2-0.2,0.5-0.4,0.5l-2.3,0.7v8.9
			c5.8,1.4,11.6,2.2,17.3,2.2c8.6,0,14.4-1.7,15.9-2.1v-8.9L36,41.1C35.7,41.1,35.5,40.9,35.5,40.6z M34.4,47.8
			c-2.6,0.6-6.7,1.3-12,1.3c-4.4,0-8.9-0.5-13.4-1.4v-2.9l2.7-0.8V12.1c3.3-0.7,6.7-1.1,10.1-1.1c4.2,0,7.7,0.5,10,1v31.9l2.7,0.8
			V47.8z"/>
		<path class="st3" d="M15.2,17.5v6.5c1.5,0.3,3.7,0.7,6.4,0.7c2.2,0,4.4-0.2,6.5-0.7v-6.5c-1.5-0.3-3.7-0.7-6.4-0.7
			C19.5,16.8,17.3,17,15.2,17.5z"/>
		<path class="st3" d="M50.6,24.9l1.5-0.8c0,0-3-7.5-4.1-9c-1.1-1.5-4.4-4.9-4.4-4.9s-0.2-0.4-0.8-0.2c-0.6,0.2-0.5,0.7-0.5,0.7
			s0,0,0.1,0.2c0.1,0.1,3,3.5,3,3.5s0.7,0.9,0.4,1.5c-0.3,0.6-2.3,5.4-2.3,5.4c-0.4,1.4,0,2.2,0,2.2s1.1,2.1,1.5,3
			c0.4,0.9,1,0.6,1,0.6l2.1-1.1c4.1,8.1,4.8,16.2,3.1,19.2c-0.5,1-1.2,1.2-1.6,1.3c-3.2,0.4-3.9-2.3-5.2-9.5c-0.1-0.3-0.1-0.7-0.2-1
			c-0.7-4.3-3.4-5.9-5.4-6.5c-0.5-0.2-1.1-0.3-1.5-0.3V32c0.2,0,0.5,0.1,0.7,0.2c2,0.6,3.1,2,3.5,4.3c0.1,0.3,0.1,0.7,0.2,1
			c0.6,3.3,1,6.2,2.1,8.4c1.1,2.4,2.9,3.5,5.2,3.5c0.3,0,0.7,0,1-0.1c1.6-0.2,2.9-1.2,3.7-2.8C56.1,42.3,54.8,33.1,50.6,24.9z
			 M47.5,24.8c0,0-1,0.5-1.3,0.6c-0.3,0.1-0.5-0.3-0.5-0.3s-0.9-1.8-1-2c-0.1-0.2,0.1-0.8,0.1-0.8s0.3-1.2,0.6-1.9
			c0.2-0.7,0.5-0.3,0.5-0.3s1.6,3.7,1.8,4.1C47.8,24.7,47.5,24.8,47.5,24.8z"/>
	</g>
</g>
<g id="Drivetrain" class="st0">
	<path class="st1" d="M50,36.9v-1.4c1.4-0.8,2.4-2.3,2.4-4v-3c0-1.7-1-3.3-2.4-4v-1.3c2.7,0,4.9-2.2,4.9-4.9c0-2.7-2.2-4.9-4.9-4.9
		h-8.2c-2.7,0-4.9,2.2-4.9,4.9c0,2.7,2.2,4.9,4.9,4.9v1.3c-0.3,0.2-0.6,0.4-0.9,0.6H25.5c-0.9-0.5-1.8-0.8-2.8-0.8
		c-1,0-2,0.3-2.8,0.8h-0.8c-0.3-0.2-0.6-0.4-0.9-0.6v-1.3c2.7,0,4.9-2.2,4.9-4.9c0-2.7-2.2-4.9-4.9-4.9h-8.2c-2.7,0-4.9,2.2-4.9,4.9
		c0,2.7,2.2,4.9,4.9,4.9v1.3c-1.4,0.8-2.4,2.3-2.4,4v3c0,1.7,1,3.3,2.4,4v1.4c-2.7,0-4.9,2.2-4.9,4.9c0,2.7,2.2,4.9,4.9,4.9h8.2
		c2.7,0,4.9-2.2,4.9-4.9c0-2.7-2.2-4.9-4.9-4.9v-1.4c0.3-0.2,0.6-0.4,0.9-0.6h0.8c0.9,0.5,1.8,0.8,2.8,0.8c1,0,2-0.3,2.8-0.8h15.3
		c0.3,0.2,0.6,0.4,0.9,0.6v1.4c-2.7,0-4.9,2.2-4.9,4.9c0,2.7,2.2,4.9,4.9,4.9h8.2c2.7,0,4.9-2.2,4.9-4.9
		C54.9,39.1,52.7,36.9,50,36.9z M49.9,43.7h-8.2c-1.1,0-1.9-0.9-1.9-1.9c0-1.1,0.9-1.9,1.9-1.9h3V33h-0.9c-0.7,0-1.3-0.5-1.5-1.1
		H24.6c-0.5,0.5-1.1,0.8-1.9,0.8c-0.7,0-1.4-0.3-1.9-0.8h-3.2c-0.2,0.7-0.8,1.1-1.5,1.1h-0.9v6.9h3c1.1,0,1.9,0.9,1.9,1.9
		c0,1.1-0.9,1.9-1.9,1.9h-8.2c-1.1,0-1.9-0.9-1.9-1.9c0-1.1,0.9-1.9,1.9-1.9h3V33h-0.9c-0.9,0-1.6-0.7-1.6-1.6v-3
		c0-0.9,0.7-1.6,1.6-1.6H13v-6.7h-3c-1.1,0-1.9-0.9-1.9-1.9c0-1.1,0.9-1.9,1.9-1.9h8.2c1.1,0,1.9,0.9,1.9,1.9c0,1.1-0.9,1.9-1.9,1.9
		h-3v6.7h0.9c0.7,0,1.3,0.5,1.5,1.1h3.2c0.5-0.5,1.1-0.8,1.9-0.8c0.7,0,1.4,0.3,1.9,0.8h17.8c0.2-0.7,0.8-1.1,1.5-1.1h0.9v-6.7h-3
		c-1.1,0-1.9-0.9-1.9-1.9c0-1.1,0.9-1.9,1.9-1.9h8.2c1.1,0,1.9,0.9,1.9,1.9c0,1.1-0.9,1.9-1.9,1.9h-3v6.7h0.9c0.9,0,1.6,0.7,1.6,1.6
		v3c0,0.9-0.7,1.6-1.6,1.6H47v6.9h3c1.1,0,1.9,0.9,1.9,1.9C51.9,42.8,51,43.7,49.9,43.7z"/>
</g>
<g id="Aerodynamic" class="st0">
	<g class="st2">
		<path class="st3" d="M18,25.1c2-0.5,3.7-1.8,5.1-3.2c1.4-1.3,2.8-2.6,4.4-3.5c1.6-1,3.3-1.7,5-2.1c0.9-0.2,1.8-0.3,2.7-0.3
			c0.9,0,1.8,0.1,2.8,0.1c3.6,0.3,7.2,0.6,10.7,0.9l-0.1,0.9l5-2.4l-4.5-3.1l-0.1,1c-3.7-0.1-7.3-0.1-10.9-0.1c-0.9,0-2,0-3,0.1
			c-1,0.1-2.1,0.3-3.1,0.6c-2,0.6-3.9,1.6-5.5,2.8c-1.6,1.2-3,2.7-4.3,4.1c-1.3,1.5-2.6,2.7-4.4,3.3c-1.7,0.7-3.7,0.6-5.7,0.8
			l-5.8,0.3l5.8,0C14.1,25.4,16,25.6,18,25.1z"/>
		<path class="st3" d="M19.1,19.3c1.6-0.7,2.9-1.9,4.1-3c1.2-1.1,2.6-2,4-2.8c2.9-1.5,6.1-2.1,9.3-2l9.5,0.3v0.6l3.2-1.8L46,8.8v0.6
			l-9.5,0.3c-3.4,0.1-6.9,1-9.9,2.8c-1.5,0.9-2.8,2-4,3.1c-0.6,0.6-1.1,1.2-1.8,1.7c-0.6,0.5-1.3,1-2,1.4c-1.4,0.8-3.1,1-4.8,1
			l-5,0.2l5,0C15.8,20.1,17.5,20,19.1,19.3z"/>
		<path class="st3" d="M48.8,43c-3.5,0.4-7.1,0.7-10.7,0.9c-1,0.1-1.9,0.1-2.8,0.1c-0.9,0-1.8-0.1-2.7-0.3c-1.8-0.4-3.5-1.1-5-2.1
			c-1.6-1-3-2.2-4.4-3.5c-1.4-1.4-3.1-2.7-5.1-3.2c-2-0.5-4-0.3-5.9-0.3l-5.8,0l5.8,0.3c1.9,0.1,3.9,0.1,5.7,0.8
			c1.8,0.6,3.2,1.9,4.4,3.3c1.3,1.4,2.7,2.9,4.3,4.1c1.6,1.2,3.5,2.2,5.5,2.8c1,0.3,2,0.5,3.1,0.6c1.1,0.1,2.1,0.1,3,0.1
			c3.6,0,7.3,0,10.9-0.1l0.1,0.9l4.5-3.1l-5-2.4L48.8,43z"/>
		<path class="st3" d="M38.7,19.3c-8.4,0-14.9,4.5-14.9,10.4c0,5.8,6.6,10.4,14.9,10.4c8.4,0,14.9-4.5,14.9-10.4
			C53.7,23.8,47.1,19.3,38.7,19.3z M38.7,36.3c-6.1,0-11.3-3.1-11.3-6.7c0-3.6,5.2-6.7,11.3-6.7C44.8,23,50,26,50,29.6
			C50,33.3,44.8,36.3,38.7,36.3z"/>
		<path class="st3" d="M46,48.2l-9.5,0.3c-3.2,0.1-6.5-0.5-9.3-2c-1.4-0.7-2.8-1.7-4-2.8c-1.2-1.1-2.5-2.3-4.1-3
			c-1.6-0.7-3.3-0.9-5-0.8l-5,0l5,0.2c1.7,0,3.3,0.3,4.8,1c0.7,0.4,1.4,0.8,2,1.4c0.6,0.5,1.1,1.1,1.8,1.7c1.2,1.2,2.5,2.3,4,3.1
			c3,1.8,6.4,2.6,9.9,2.8l9.5,0.3v0.6l3.2-1.8L46,47.6V48.2z"/>
	</g>
</g>
<g id="HeliBlades" class="st0">
	<path class="st4" d="M26.5,31.6c0,0-1.2,1.3-2.8,2.2c-1.6,0.9-2.5,1-2.7,1.1s-0.3,0.1-0.5,0.2C20.4,35.2,0.8,54.9,0.7,55
		c-0.1,0.1-0.1,0.2,0,0.4s1.5,1.5,2.1,1.8s1.1,0.4,1.5,0c0.4-0.4,20.3-19.4,20.3-19.4s2.4-3.4,2.6-3.5s0.4-0.5,0.6-0.6
		c0.1-0.1,0.5-0.5,0.5-0.5s0.3-0.1,0.6-0.4c0.3-0.2,0.7-0.4,0.9-0.4c0.1,0,0.3,0.1,0.3,0.1s0.5-0.4,0.8-0.8c0.3-0.4,0.6-0.8,0.6-0.8
		l0.1,0.1l0.5-0.5l0-0.1c0,0,0.7-0.6,1.1-0.9c0.4-0.4,0.5-0.4,0.5-0.6c0-0.2,0.3-0.8,0.5-1.1c0.2-0.3,0.4-0.6,0.4-0.6
		s1.5-1.3,2.1-1.6c0.6-0.4,2.5-1.2,3-1.3c0.5-0.1,0.7-0.1,0.8-0.2S59.1,5.1,59.3,5s0.3-0.3,0.1-0.4c-0.2-0.2-1.2-1.3-2-1.7
		s-1.1-0.3-1.6,0.1S36.2,21.2,36.2,21.2s-1.3,1.8-1.9,2.6c-0.6,0.8-1,1.2-1.2,1.4c-0.1,0.2-0.3,0.3-0.3,0.3s-0.6,0.3-0.8,0.4
		c-0.2,0.1-0.3,0.3-0.6,0.3s-0.5,0-0.5,0s-0.6,0.6-0.7,0.7s-0.7,0.8-0.7,0.8l-0.1-0.1l-0.5,0.5l0,0.1c0,0-0.3,0.3-0.7,0.6
		c-0.4,0.2-0.7,0.6-0.8,0.7c-0.1,0.1-0.1,0.2-0.1,0.2s0.1,0.3-0.2,0.9C26.7,31.2,26.5,31.6,26.5,31.6z"/>
</g>
<g id="FuelBottle" class="st0">
	<path class="st1" d="M47.8,12.8c0,0-3.3,1.2-3.7,1.6C43.6,14.9,33.5,25,33.5,25s0,0-0.2-0.1c-0.2-0.1-1.3-0.5-1.5-0.4
		c-0.2,0.2-1.9,1.9-1.9,1.9s-0.5,0.7-1.9-0.2c-0.9-0.5-2.5,0.2-3.3,1C24,28,12.9,39.1,12.5,39.4c-0.3,0.3-2.1,1.2,1.7,5
		c3.8,3.8,5,2.5,5.4,2.1c0.4-0.4,11.7-11.7,12.6-12.6c0.9-0.9,1.2-1.8,0.5-3.1c-0.6-1,0.2-1.6,0.2-1.6s1.6-1.6,1.8-1.8
		c0.2-0.2-0.3-1.5-0.3-1.5l10.4-10.4l3.2-1.4L47.8,12.8 M51.3,12c1.1,3-1.2,4.8-2.4,5.3c-0.9,0.4-2.3,1-2.3,1l-8.4,8.4
		c0,1-0.2,2-1.2,3l-0.6,0.6c0.6,2.1,0,4.1-1.8,5.9L22,48.9c-1.9,1.9-5.2,3.1-10.3-1.9c-2.4-2.5-3.5-4.4-3.3-6.5
		c0.1-1.3,0.8-2.5,1.9-3.5l12.1-12.1c1.6-1.6,4.3-2.7,6.5-2.1c0.3-0.3,0.5-0.5,0.6-0.6c1.1-1.1,2.3-1.3,3.3-1.1l8.9-8.9
		c0.5-0.5,4.3-2.2,4.8-2.4C47.2,9.4,50.2,8.9,51.3,12z"/>
</g>
<g id="Extras" class="st0">
	<g class="st2">
		<path class="st3" d="M35.3,26.9c0.4,0,0.8-0.2,1.1-0.5c0.3-0.4,0.4-0.8,0.3-1.3L35.8,20l3.7-3.6c0.5-0.4,0.6-1,0.4-1.6
			c-0.2-0.6-0.7-0.9-1.3-1L33.6,13l-2.3-4.6c-0.3-0.6-0.8-0.9-1.4-0.9c-0.6,0-1.1,0.3-1.4,0.9L26.2,13l-5.1,0.7
			c-0.6,0.1-1.1,0.5-1.3,1c-0.2,0.6,0,1.2,0.4,1.6L24,20L23.1,25c-0.1,0.5,0,1,0.3,1.3c0.4,0.5,1.2,0.7,1.9,0.3l4.6-2.4l4.6,2.4
			C34.7,26.8,35,26.9,35.3,26.9z M33.4,20.3l0.6,3.2L31,22c-0.4-0.2-0.8-0.3-1.1-0.3c-0.3,0-0.7,0-1.1,0.3l-2.9,1.5l0.6-3.2
			c0.1-0.7-0.2-1.6-0.7-2.1l-2.3-2.3l3.2-0.5c0.7-0.1,1.5-0.6,1.8-1.3l1.5-2.9l1.5,2.9c0.3,0.7,1.1,1.2,1.8,1.3l3.2,0.5L34,18.2
			C33.5,18.7,33.2,19.6,33.4,20.3z"/>
		<path class="st3" d="M24.7,33.5l-5.1-0.7l-2.3-4.6c-0.3-0.6-0.8-0.9-1.4-0.9c-0.6,0-1.1,0.3-1.4,0.9l-2.3,4.6l-5.1,0.7
			c-0.6,0.1-1.1,0.5-1.3,1c-0.2,0.6,0,1.2,0.4,1.6l3.7,3.6l-0.9,5.1c-0.1,0.5,0,1,0.3,1.3c0.4,0.5,1.2,0.7,1.9,0.3l4.6-2.4l4.6,2.4
			c0.3,0.1,0.5,0.2,0.8,0.2c0.4,0,0.8-0.2,1.1-0.5c0.3-0.4,0.4-0.8,0.3-1.3l-0.9-5.1l3.7-3.6c0.5-0.4,0.6-1,0.4-1.6
			C25.8,34,25.3,33.6,24.7,33.5z M20.1,38c-0.5,0.5-0.8,1.4-0.7,2.1l0.6,3.2L17,41.8c-0.4-0.2-0.8-0.3-1.1-0.3s-0.7,0-1.1,0.3
			l-2.9,1.5l0.6-3.2c0.1-0.7-0.2-1.6-0.7-2.1l-2.3-2.3l3.2-0.5c0.7-0.1,1.5-0.6,1.8-1.3l1.5-2.9l1.5,2.9c0.3,0.7,1.1,1.2,1.8,1.3
			l3.2,0.5L20.1,38z"/>
		<path class="st3" d="M54.1,34.5c-0.2-0.6-0.7-0.9-1.3-1l-5.1-0.7l-2.3-4.6c-0.3-0.6-0.8-0.9-1.4-0.9c-0.6,0-1.1,0.3-1.4,0.9
			l-2.3,4.6l-5.1,0.7c-0.6,0.1-1.1,0.5-1.3,1c-0.2,0.6,0,1.2,0.4,1.6l3.7,3.6l-0.9,5.1c-0.1,0.5,0,1,0.3,1.3
			c0.4,0.5,1.2,0.7,1.9,0.3l4.6-2.4l4.6,2.4c0.3,0.1,0.5,0.2,0.8,0.2c0.4,0,0.8-0.2,1.1-0.5c0.3-0.4,0.4-0.8,0.3-1.3L50,39.7
			l3.7-3.6C54.2,35.7,54.3,35.1,54.1,34.5z M48.2,38c-0.5,0.5-0.8,1.4-0.7,2.1l0.6,3.2l-2.9-1.5c-0.4-0.2-0.8-0.3-1.1-0.3
			c-0.3,0-0.7,0-1.1,0.3L40,43.3l0.6-3.2c0.1-0.7-0.2-1.6-0.7-2.1l-2.4-2.3l3.2-0.5c0.7-0.1,1.5-0.6,1.8-1.3l1.5-2.9l1.5,2.9
			c0.3,0.7,1.1,1.2,1.8,1.3l3.2,0.5L48.2,38z"/>
	</g>
</g>
<g id="Time" class="st0">
	<g class="st2">
		<path class="st3" d="M30.5,12h1c0.6,0,1,0.5,1,1v0.3c0.5-0.4,0.8-1,0.8-1.7c0-1.3-1-2.3-2.3-2.3c-1.3,0-2.3,1-2.3,2.3
			c0,0.7,0.3,1.3,0.8,1.7V13C29.5,12.5,29.9,12,30.5,12z"/>
		<path class="st3" d="M41.8,23.5C38.9,20.6,35.1,19,31,19c-4.1,0-7.9,1.6-10.8,4.5c-2.9,2.9-4.5,6.7-4.5,10.8
			c0,4.1,1.6,7.9,4.5,10.8c2.9,2.9,6.7,4.5,10.8,4.5c4.1,0,7.9-1.6,10.8-4.5c2.9-2.9,4.5-6.7,4.5-10.8
			C46.2,30.2,44.6,26.4,41.8,23.5z M40.4,43.6c-2.5,2.5-5.8,3.9-9.4,3.9c-3.5,0-6.9-1.4-9.4-3.9c-2.5-2.5-3.9-5.8-3.9-9.4
			c0-3.5,1.4-6.9,3.9-9.4c2.5-2.5,5.8-3.9,9.4-3.9c3.5,0,6.9,1.4,9.4,3.9c2.5,2.5,3.9,5.8,3.9,9.4C44.3,37.8,42.9,41.1,40.4,43.6z"
			/>
		<path class="st3" d="M37.7,26.9L29.3,33c0,0,0,0-0.1,0c-0.4,0.4-0.6,0.9-0.6,1.5c0,0.6,0.2,1.1,0.6,1.5c0.4,0.4,0.9,0.6,1.5,0.6
			c0.5,0,1-0.2,1.4-0.5c0.1,0,0.1-0.1,0.1-0.1l6.1-8.5c0.1-0.2,0.1-0.4,0-0.6C38.1,26.8,37.9,26.8,37.7,26.9z"/>
		<path class="st3" d="M46.3,20.1c-2.6-2.8-5.8-4.8-9.4-5.8c0.4-0.8,0.6-1.8,0.6-2.7C37.5,7.9,34.6,5,31,5c-3.6,0-6.5,2.9-6.5,6.5
			c0,1,0.2,1.9,0.6,2.7c-1.2,0.4-2.4,0.8-3.5,1.4c-0.2-0.3-0.4-0.6-0.7-0.9l-1.5-1.5c-0.7-0.7-1.5-1-2.5-1c-0.9,0-1.8,0.4-2.5,1
			l-5.4,5.4c-1.4,1.4-1.4,3.6,0,4.9l1.5,1.5c0.4,0.4,0.8,0.7,1.3,0.8c-1.1,2.6-1.7,5.4-1.7,8.3C10.2,45.6,19.6,55,31,55
			c11.5,0,20.8-9.3,20.8-20.8C51.8,28.9,49.9,23.9,46.3,20.1z M31,52.1c-9.9,0-17.9-8-17.9-17.9c0-4.3,1.5-8.2,4-11.3l-1.7-1.7
			l-1.9,1.9c-0.1,0.1-0.3,0.2-0.4,0.2c-0.2,0-0.3-0.1-0.4-0.2l-1.5-1.5c-0.2-0.2-0.2-0.6,0-0.9l5.4-5.4c0.1-0.1,0.3-0.2,0.4-0.2
			c0.2,0,0.3,0.1,0.4,0.2l1.5,1.5c0.2,0.2,0.2,0.6,0,0.9l-2.1,2.1l1.6,1.6c2.9-2.8,6.7-4.7,11-5v-1.5c-1.2-0.6-2.1-1.8-2.1-3.3
			c0-2,1.6-3.6,3.6-3.6c2,0,3.6,1.6,3.6,3.6c0,1.5-0.9,2.7-2.1,3.3v1.5C41.8,17.1,49,24.8,49,34.2C49,44.1,40.9,52.1,31,52.1z"/>
	</g>
</g>
<g id="ElectricMotor" class="st0">
	<g class="st2">
		<rect x="19.7" y="33.5" class="st3" width="20.6" height="1.3"/>
		<rect x="19.7" y="29.9" class="st3" width="20.6" height="1.3"/>
		<rect x="19.7" y="41.1" class="st3" width="20.6" height="1.3"/>
		<rect x="19.7" y="37.4" class="st3" width="20.6" height="1.3"/>
		<path class="st3" d="M43,20.4l-0.6-0.5c-0.4-0.3-0.7-1.1-0.7-1.5c0-1.8-1.5-3.3-3.4-3.3h-4.1l0-6.5c0-0.9-0.4-1.8-1-2.4
			c-0.6-0.6-1.5-1-2.4-1h-1.5c-0.9,0-1.8,0.4-2.4,1c-0.6,0.6-1,1.5-1,2.4l0,6.5h-4.1c-1.9,0-3.4,1.5-3.4,3.3c0,0.4-0.3,1.1-0.7,1.5
			L17,20.4c-1.1,0.9-1.9,2.7-1.9,4.1v27c0,1.9,1.5,3.4,3.4,3.4h23c1.9,0,3.4-1.5,3.4-3.4v-27C44.9,23.1,44.1,21.3,43,20.4z
			 M41.5,51.5h-23v-27c0-0.4,0.4-1.2,0.7-1.5l0.6-0.5c1.1-0.9,1.9-2.6,1.9-4h4.1c2,0,3.4-1.1,3.4-2.7l0-7.3l1.5,0l0,7.3
			c0,1.5,1.5,2.7,3.4,2.7l4.1-0.1c0,1.4,0.8,3.1,1.9,4l0.6,0.5c0.3,0.3,0.7,1.1,0.7,1.5L41.5,51.5z"/>
	</g>
</g>
<g id="Engine" class="st0">
	<g class="st2">
		<path class="st3" d="M16.6,12.2h22.6c1.1,0,1.9-0.9,1.9-1.9c0-1.1-0.9-1.9-1.9-1.9h-7.4c-0.4-1.8-2-3.1-3.9-3.1
			c-1.9,0-3.5,1.3-3.9,3.1h-7.4c-1.1,0-1.9,0.9-1.9,1.9C14.6,11.3,15.5,12.2,16.6,12.2z"/>
		<path class="st3" d="M16.6,19.2h22.6c1.1,0,1.9-0.9,1.9-1.9c0-1.1-0.9-1.9-1.9-1.9H16.6c-1.1,0-1.9,0.9-1.9,1.9
			C14.6,18.3,15.5,19.2,16.6,19.2z"/>
		<path class="st3" d="M49.5,36.7L49,35.9c-0.7-1.2-2.2-2.3-3.9-2.3c-0.9,0-1.8,0.4-2.4,1c-0.7-0.6-1.6-1-2.6-1h-3.6v-0.4
			c0-2.2-1.8-4-4-4h-9.2c-1.8,0-3.3,1.2-3.8,2.8h-6.1c-2.2,0-4,1.8-4,4v4.7v2.6v2v2.6v0.3c0,2.2,1.8,4,4,4h0.2
			c0.1,0,0.2,0.1,0.2,0.1l0.7,0.8c1,1.1,2.7,1.9,4.2,1.9H40c1.4,0,2.6-0.7,3.3-1.8c0.5,0.3,1.1,0.5,1.7,0.5c1.7,0,3.2-1.2,3.9-2.3
			l0.5-0.9c0.7-1,1.1-2.6,1.1-3.8v-6C50.6,39.3,50.2,37.8,49.5,36.7z M47.9,46.6c0,0.7-0.3,1.8-0.7,2.4l-0.5,0.9
			c-0.4,0.6-1.1,1.1-1.7,1.1c-0.5,0-1-0.6-1-1.3v-1.5c0-0.7-0.6-1.3-1.3-1.3h-0.2c-0.7,0-1.3,0.6-1.3,1.3v2.8c0,0.7-0.6,1.3-1.3,1.3
			H18.6c-0.7,0-1.7-0.4-2.1-1l-0.7-0.9c-0.5-0.5-1.4-1-2.1-1h-0.3c-0.7,0-1.3-0.6-1.3-1.3v-0.3v-2.6v-2v-2.6V36
			c0-0.7,0.6-1.3,1.3-1.3h7.3c0.7,0,1.3-0.6,1.3-1.3v-0.2c0-0.7,0.6-1.3,1.3-1.3h9.2c0.7,0,1.3,0.6,1.3,1.3v1.8
			c0,0.7,0.6,1.3,1.3,1.3h5c0.7,0,1.3,0.6,1.3,1.3V39c0,0.7,0.6,1.3,1.3,1.3h0.2c0.7,0,1.3-0.6,1.3-1.3v-1.5c0-0.7,0.4-1.3,1-1.3
			c0.5,0,1.3,0.5,1.7,1.1l0.5,0.9c0.4,0.6,0.7,1.7,0.7,2.4V46.6z"/>
		<path class="st3" d="M16.6,26.3h22.6c1.1,0,1.9-0.9,1.9-1.9c0-1.1-0.9-1.9-1.9-1.9H16.6c-1.1,0-1.9,0.9-1.9,1.9
			C14.6,25.4,15.5,26.3,16.6,26.3z"/>
	</g>
</g>
<g id="AirTransmitter">
	<g>
		<path class="st3" d="M44.9,21.8l-0.1,0h-0.1h-3.3H18.6h-2.7h-0.3h-0.9l-0.1,0.1c-3,0.4-5.6,2.4-6.5,5.2c-0.5,1.6-0.5,2.9-0.4,4
			l0,0.3l0,0.2l0.1,0.6L8,32.7l0.2,1.9l0.1,1.1l0.1,1.2l0.2,1.5l0.1,1.2c0.1,0.9,0.2,1.8,0.3,2.7l0.2,1.6l0.1,1.1l0.1,0.8l0.2,1.6
			c0,0.3,0.1,0.7,0.1,1c0,0.3,0.1,0.7,0.1,1l0,0.1c0.1,0.5,0.1,0.9,0.1,1.4l0,0.1c0.1,0.8,0.2,2.1,1,3.4c0.7,1.1,1.7,2,2.8,2.5
			c0.7,0.3,1.4,0.5,2.2,0.5l0.1,0h0.1l27.3,0c3.5,0,6.3-2.8,6.4-6.2l0.1-0.8l0.1-0.9c0.2-1.5,0.3-2.9,0.5-4.4l0.2-1.4
			c0.1-1.3,0.3-2.7,0.5-4l0.1-1.3c0.1-1.3,0.3-2.5,0.4-3.8l0.1-0.8c0.1-0.8,0.2-1.6,0.3-2.4l0-0.2c0.1-0.4,0.1-1,0.1-1.6
			C52.3,25.6,49.1,22.1,44.9,21.8z M49,31.1c-0.2,1.1-0.3,2.2-0.4,3.3c-0.2,1.7-0.4,3.4-0.6,5c-0.2,1.8-0.4,3.6-0.6,5.5
			c-0.2,1.5-0.3,2.9-0.5,4.4c-0.1,0.6-0.1,1.2-0.2,1.8c0,1.8-1.5,3.3-3.3,3.3l-27.3,0c-0.4,0-0.8-0.1-1.1-0.3
			c-0.6-0.3-1.1-0.8-1.4-1.3c-0.4-0.6-0.4-1.4-0.5-2.1c0-0.5-0.1-1-0.2-1.6c-0.1-0.7-0.1-1.4-0.2-2.1c-0.1-0.8-0.2-1.6-0.3-2.4
			c-0.1-0.9-0.2-1.8-0.3-2.6c-0.1-0.9-0.2-1.8-0.3-2.7c-0.1-0.9-0.2-1.8-0.3-2.6c-0.1-0.8-0.2-1.6-0.3-2.3c-0.1-0.6-0.1-1.3-0.2-1.9
			c0-0.4-0.1-0.8-0.1-1.3c0-0.2,0-0.3,0-0.5c-0.1-0.9-0.1-1.7,0.2-2.6c0.6-1.8,2.6-3.1,4.5-3.1c0.1,0,0.2,0,0.3,0l0,0h2.7h22.8h3.3
			c2.5,0.2,4.4,2.3,4.4,4.8C49.1,30.2,49,30.6,49,31.1z"/>
		<path class="st3" d="M20.1,26.4c-4,0-7.2,3.2-7.2,7.2c0,4,3.2,7.2,7.2,7.2c3.9,0,7.2-3.2,7.2-7.2C27.2,29.6,24,26.4,20.1,26.4z
			 M20.1,37.5c-2.2,0-4-1.8-4-4c0-2.2,1.8-4,4-4c2.2,0,4,1.8,4,4C24.1,35.8,22.3,37.5,20.1,37.5z"/>
		<path class="st3" d="M40.2,26.4c-4,0-7.2,3.2-7.2,7.2c0,4,3.2,7.2,7.2,7.2c3.9,0,7.2-3.2,7.2-7.2C47.4,29.6,44.2,26.4,40.2,26.4z
			 M40.2,37.5c-2.2,0-4-1.8-4-4c0-2.2,1.8-4,4-4c2.2,0,4,1.8,4,4C44.2,35.8,42.4,37.5,40.2,37.5z"/>
		<path class="st3" d="M37.3,17.1c-0.5-0.5-1.1-1.5-1.9-1.5c0,0-0.1,0-0.1,0l0,0h-2.4l0,0h-5.8l0,0h0h-2.5c-0.3,0-0.6,0.1-0.8,0.4
			l0,0l-3.2,3.1h18.9C38.7,18.5,38,17.8,37.3,17.1z"/>
		<path class="st3" d="M30.9,3.3L30.9,3.3c0-0.5-0.4-0.8-0.9-0.8c-0.5,0-0.9,0.4-0.9,0.8h0l-1.8,11.1h5.4L30.9,3.3z"/>
	</g>
</g>
</svg>
